# xmcd
#
# Track frame offsets:
# 150
# 16740
# 32641
# 44975
# 57646
# 75862
# 89518
# 103522
# 115941
# 134538
# 152619
# 164569
# 181779
# 192471
# 211051
# 225056
# 238804
# 250379
# 267233
# 283287
#
# Disc length: 4007 seconds
#
#
# Revision: 0
# Processed by: cddbd v1.5.2PL0 Copyright (c) Steve Scherf et al.
# Submitted via: FreeRIP 2.951 
#
DISCID=150fa514
DTITLE=Vários - Bailão de Rodeio
DYEAR=1900
DGENRE=Sertanejo
TTITLE0=Entre na arena
TTITLE1=Rodeio e Vaquejada
TTITLE2=Alô Galera
TTITLE3=Mulher Boa
TTITLE4=A viola Tiniu
TTITLE5=Bebum
TTITLE6=Vai e Vem
TTITLE7=100% do Brasil
TTITLE8=A culpa é Dela
TTITLE9=Meu amor fugiu de mim
TTITLE10=Trovejou mas não choveu
TTITLE11=Quebradeira
TTITLE12=Dedo Duro
TTITLE13=Clima de rodeio
TTITLE14=Vem Rebolar
TTITLE15=Brasil, Samba e forró
TTITLE16=Rabo de saia
TTITLE17=Mexe e Requebra
TTITLE18=Não foge da raia
TTITLE19=Nóis Trupica mais não cai
EXTD=
EXTT0=
EXTT1=
EXTT2=
EXTT3=
EXTT4=
EXTT5=
EXTT6=
EXTT7=
EXTT8=
EXTT9=
EXTT10=
EXTT11=
EXTT12=
EXTT13=
EXTT14=
EXTT15=
EXTT16=
EXTT17=
EXTT18=
EXTT19=
PLAYORDER=
